<svg width="63" height="13" fill="none" xmlns="http://www.w3.org/2000/svg"><path d="M.632 12c-.106667 0-.197333-.0373-.272-.112-.074667-.0747-.112-.1653-.112-.272V1.2c0-.11733.032-.213334.096-.288C.418667.837333.514667.799999.632.799999H4.92c1.28 0 2.288.304001 3.024.912001.736.59733 1.104 1.47733 1.104 2.64s-.368 2.04267-1.104 2.64c-.72533.58667-1.73333.88-3.024.88H2.536v3.744c0 .1067-.03733.1973-.112.272-.064.0747-.15467.112-.272.112H.632ZM4.84 6.096c.61867 0 1.09333-.144 1.424-.432.33067-.29867.496-.736.496-1.312 0-.55467-.16-.98667-.48-1.296-.32-.32-.8-.48-1.44-.48H2.504v3.52H4.84Z" fill="#2959CE"/><path d="M17.8848 12c-.1067 0-.1974-.032-.272-.096-.064-.0747-.096-.1653-.096-.272v-8.96l-2.656 2.048c-.0747.064-.1547.096-.24.096-.096 0-.1867-.05333-.272-.16l-.416-.528c-.0534-.07467-.08-.14933-.08-.224 0-.128.0533-.22933.16-.304l3.488-2.688c.1173-.074667.256-.112001.416-.112001h.816c.1066 0 .192.037334.256.112001.0746.064.112.14933.112.256v10.464c0 .1067-.0374.1973-.112.272-.064.064-.1494.096-.256.096h-.848Zm7.1957.16c-.8427 0-1.5733-.1333-2.192-.4-.608-.2773-1.072-.6347-1.392-1.072-.3093-.4373-.4747-.896-.496-1.376 0-.096.032-.17067.096-.224.064-.064.144-.096.24-.096h.784c.224 0 .3733.11733.448.352.1387.53333.4373.912.896 1.136.4587.2133.9973.32 1.616.32.7573 0 1.36-.176 1.808-.528.448-.36267.672-.88.672-1.552 0-1.29067-.784-1.936-2.352-1.936h-1.52c-.1067 0-.1973-.032-.272-.096-.064-.07467-.096-.16533-.096-.272v-.432c0-.14933.0587-.29333.176-.432l3.104-3.392h-4.72c-.1067 0-.1973-.032-.272-.096-.064-.07467-.096-.16533-.096-.272v-.608c0-.10667.032-.197334.096-.272.0747-.074667.1653-.112001.272-.112001h6.384c.1173 0 .208.037334.272.112001.0747.064.112.15467.112.272v.576c0 .128-.0587.25067-.176.368l-3.088 3.44.256.016c1.088.032 1.9467.31467 2.576.848s.944 1.312.944 2.336c0 .69333-.176 1.296-.528 1.808-.352.512-.8373.9067-1.456 1.184-.6187.2667-1.3173.4-2.096.4Zm9.9294 0c-.832 0-1.5627-.1333-2.192-.4-.6294-.2773-1.12-.672-1.472-1.184-.352-.512-.528-1.10933-.528-1.792 0-.62933.1546-1.17867.464-1.648.3093-.48.7306-.848 1.264-1.104-.4267-.24533-.7574-.56533-.992-.96-.224-.40533-.336-.87467-.336-1.408 0-.93867.3413-1.67467 1.024-2.208.6933-.544001 1.616-.816001 2.768-.816001 1.1413 0 2.0533.272 2.736.816001.6933.53333 1.04 1.264 1.04 2.192 0 .53333-.1174 1.00267-.352 1.408-.224.39467-.544.72-.96.976.5333.256.9546.624 1.264 1.104.3093.46933.464 1.01867.464 1.648 0 .68267-.176 1.28-.528 1.792-.352.512-.848.9067-1.488 1.184-.6294.2667-1.3547.4-2.176.4Zm0-6.704c.64-.01067 1.1786-.176 1.616-.496.4373-.32.656-.74133.656-1.264 0-.53333-.2187-.96-.656-1.28-.4267-.33067-.9654-.496-1.616-.496-.6614 0-1.2107.16-1.648.48-.4267.32-.64.752-.64 1.296 0 .53333.2133.96.64 1.28.4373.32.9866.48 1.648.48Zm0 5.424c.7466 0 1.3706-.192 1.872-.576.5013-.384.752-.89067.752-1.52 0-.62933-.2507-1.13067-.752-1.504-.5014-.37333-1.1254-.56-1.872-.56-.7574 0-1.3867.18667-1.888.56-.5014.37333-.752.87467-.752 1.504 0 .62933.2506 1.136.752 1.52.5013.384 1.1306.576 1.888.576ZM41.3775 12c-.1067 0-.1973-.032-.272-.096-.064-.0747-.096-.1653-.096-.272V10.48c0-.1067.032-.192.096-.256.0747-.0747.1653-.112.272-.112h1.152c.1067 0 .1973.0373.272.112.0747.064.112.1493.112.256v1.152c0 .1067-.0373.1973-.112.272-.0747.064-.1653.096-.272.096h-1.152Zm3.7433 0c-.1067 0-.1974-.032-.272-.096-.064-.0747-.096-.1653-.096-.272v-.512c0-.2453.1333-.48.4-.704l3.392-3.392c.8213-.68267 1.3866-1.23733 1.696-1.664.3093-.43733.464-.896.464-1.376 0-.61867-.176-1.104-.528-1.456-.3414-.352-.8427-.528-1.5041-.528-.6186 0-1.1146.18667-1.4879.56-.3734.36267-.6027.848-.688 1.456-.0214.128-.0747.224-.16.288-.0747.05333-.16.08-.2561.08h-.8319c-.096 0-.176-.02667-.24-.08-.064-.064-.096-.13867-.096-.224.0213-.576.176-1.12533.464-1.648.288-.53333.7093-.96533 1.264-1.296.5653-.341334 1.2426-.512 2.0319-.512 1.2054 0 2.1121.314666 2.7201.944.6186.61867.928 1.408.928 2.368 0 .672-.1707 1.28-.512 1.824-.3307.53333-.848 1.10933-1.552 1.728l-3.072 3.12h4.992c.1173 0 .208.0373.272.112.0746.064.112.1493.112.256v.656c0 .1067-.0374.1973-.112.272-.0747.064-.1654.096-.272.096h-7.056Zm13.1666.16c-.8534 0-1.5947-.1707-2.224-.512-.6294-.352-1.1094-.8213-1.44-1.408-.3307-.58667-.496-1.22667-.496-1.92 0-.56533.112-1.09867.336-1.6.2346-.512.496-.96533.784-1.36l3.04-4.24c.0106-.01067.0426-.048.096-.112.0426-.064.1013-.112.176-.144001.0746-.042666.16-.064.256-.064h.848c.096 0 .1706.037334.224.112001.064.064.096.144.096.24 0 .07467-.0214.144-.064.208l-2.336 3.264c.2346-.07467.5386-.112.912-.112.768.01067 1.4453.18667 2.032.528.5973.34133 1.056.8 1.376 1.376.3306.576.496 1.20533.496 1.888 0 .68267-.1654 1.32267-.496 1.92-.32.5867-.7947 1.056-1.424 1.408-.6187.352-1.3494.528-2.192.528Zm-.016-1.36c.4586 0 .88-.096 1.264-.288.3946-.192.704-.4747.928-.848.2346-.384.352-.83733.352-1.36 0-.512-.1174-.95467-.352-1.328-.224-.37333-.5334-.656-.928-.848-.384-.192-.8054-.288-1.264-.288-.448 0-.8694.096-1.264.288-.384.192-.6934.47467-.928.848-.2347.37333-.352.816-.352 1.328 0 .52267.1173.976.352 1.36.2346.3733.544.656.928.848.384.192.8053.288 1.264.288Z" fill="#555"/></svg>