<svg width="89" height="45" fill="none" xmlns="http://www.w3.org/2000/svg"><rect width="89" height="45" rx="10" fill="#7296EC"/><path d="M21.632 28c-.1067 0-.1973-.0373-.272-.112-.0747-.0747-.112-.1653-.112-.272V17.2c0-.1173.032-.2133.096-.288.0747-.0747.1707-.112.288-.112h4.64c1.248 0 2.176.2773 2.784.832.6187.544.928 1.2907.928 2.24 0 .5547-.1387 1.0293-.416 1.424-.2667.384-.5813.6613-.944.832.448.2027.8213.5333 1.12.992.3093.4587.464.9813.464 1.568 0 .992-.336 1.792-1.008 2.4-.6613.608-1.5947.912-2.8.912h-4.768Zm4.352-6.608c.5547 0 .976-.1333 1.264-.4.288-.2667.432-.624.432-1.072 0-.4587-.144-.8107-.432-1.056-.288-.256-.7093-.384-1.264-.384h-2.512v2.912h2.512Zm.16 4.912c.5547 0 .9867-.1493 1.296-.448.3093-.3093.464-.6987.464-1.168 0-.48-.1547-.8693-.464-1.168-.3093-.3093-.7413-.464-1.296-.464h-2.672v3.248h2.672Zm9.5608 1.856c-1.248 0-2.2134-.32-2.896-.96-.6827-.6507-1.0507-1.536-1.104-2.656l-.016-.704.016-.704c.0533-1.1093.4266-1.9893 1.12-2.64.6933-.6507 1.6533-.976 2.88-.976 1.2266 0 2.1866.3253 2.88.976.6933.6507 1.0666 1.5307 1.12 2.64.0106.128.016.3627.016.704 0 .3413-.0054.576-.016.704-.0534 1.12-.4214 2.0053-1.104 2.656-.6827.64-1.648.96-2.896.96Zm0-1.584c.5653 0 1.0026-.176 1.312-.528.3093-.3627.48-.8907.512-1.584.0106-.1067.016-.3147.016-.624s-.0054-.5173-.016-.624c-.032-.6933-.2027-1.216-.512-1.568-.3094-.3627-.7467-.544-1.312-.544-.5654 0-1.0027.1813-1.312.544-.3094.352-.48.8747-.512 1.568l-.016.624.016.624c.032.6933.2026 1.2213.512 1.584.3093.352.7466.528 1.312.528Zm13.3727-6.896c.096 0 .1813.0373.256.112.0747.064.112.144.112.24v7.584c0 .1067-.0373.1973-.112.272-.0747.0747-.1653.112-.272.112h-1.328c-.1067 0-.1973-.0373-.272-.112-.0747-.0747-.112-.1653-.112-.272V22.48l-3.84 5.264c-.096.1707-.24.256-.432.256h-1.216c-.096 0-.1813-.032-.256-.096-.0747-.0747-.112-.1653-.112-.272v-7.568c0-.1067.0373-.1973.112-.272.0747-.0747.1653-.112.272-.112h1.328c.1173 0 .208.0373.272.112.0747.064.112.1547.112.272v5.152l3.84-5.28c.1173-.1707.2613-.256.432-.256h1.216Zm-3.52-1.088c-.9067 0-1.568-.1973-1.984-.592-.416-.4053-.624-.9227-.624-1.552 0-.0853.0267-.1547.08-.208.0533-.064.128-.096.224-.096h.912c.096 0 .1707.032.224.096.0533.0533.08.1227.08.208 0 .608.3627.912 1.088.912.7253 0 1.088-.304 1.088-.912 0-.0853.0267-.1547.08-.208.0533-.064.128-.096.224-.096h.928c.096 0 .1707.032.224.096.0533.0533.08.1227.08.208 0 .6293-.2133 1.1467-.64 1.552-.416.3947-1.0773.592-1.984.592ZM54.0063 28c-.1067 0-.1974-.0373-.272-.112-.0747-.0747-.112-.1653-.112-.272v-6.24h-2.608c-.1067 0-.1974-.0373-.272-.112-.0747-.0747-.112-.1707-.112-.288v-.912c0-.1173.0373-.208.112-.272.0746-.0747.1653-.112.272-.112h7.264c.1173 0 .2133.0373.288.112.0746.0747.112.1653.112.272v.912c0 .1067-.0374.2027-.112.288-.0747.0747-.1707.112-.288.112h-2.592v6.24c0 .1067-.0374.1973-.112.272-.064.0747-.1547.112-.272.112h-1.296Zm13.5243-8.32c.096 0 .1814.0373.256.112.0747.064.112.144.112.24v7.584c0 .1067-.0373.1973-.112.272-.0746.0747-.1653.112-.272.112h-1.328c-.1066 0-.1973-.0373-.272-.112-.0746-.0747-.112-.1653-.112-.272V22.48l-3.84 5.264c-.096.1707-.24.256-.432.256h-1.216c-.096 0-.1813-.032-.256-.096-.0746-.0747-.112-.1653-.112-.272v-7.568c0-.1067.0374-.1973.112-.272.0747-.0747.1654-.112.272-.112h1.328c.1174 0 .208.0373.272.112.0747.064.112.1547.112.272v5.152l3.84-5.28c.1174-.1707.2614-.256.432-.256h1.216Z" fill="#fff"/></svg>