<svg width="15" height="10" fill="none" xmlns="http://www.w3.org/2000/svg"><path d="M.43 10c-.086667 0-.160333-.026-.221-.078-.052-.06067-.078-.13433-.078-.221V1.212c0-.09533.026-.169.078-.221C.269667.930333.343333.899999.43.899999h3.302c.97933 0 1.75067.238331 2.314.715001.56333.47667.845 1.16567.845 2.067 0 .90133-.28167 1.59033-.845 2.067-.55467.468-1.326.702-2.314.702H1.431v3.25c0 .08667-.03033.16033-.091.221-.06067.052-.13433.078-.221.078H.43Zm3.237-4.641c.63267 0 1.10933-.143 1.43-.429.32933-.286.494-.702.494-1.248s-.16033-.962-.481-1.248c-.32067-.29467-.80167-.442-1.443-.442H1.418v3.367h2.249ZM14.7378.899999c.0694 0 .13.026001.182.078001.052.052.078.11267.078.182 0 .06933-.013.13-.039.182l-2.652 6.006c-.3033.68467-.5763 1.209-.819 1.573-.234.35533-.5113.624-.832.806-.3206.182-.73665.273-1.24798.273h-.52c-.08667 0-.16033-.026-.221-.078-.052-.06067-.078-.13433-.078-.221v-.546c0-.08667.026-.16033.078-.221.06067-.06067.13433-.091.221-.091h.455c.34667 0 .63267-.104.85798-.312.234-.21667.4724-.57633.715-1.079L7.54882 1.316c-.026-.052-.039-.09967-.039-.143 0-.06933.026-.13.078-.182.06067-.060667.12567-.091001.195-.091001h.741c.13 0 .234.073667.312.221001l2.70398 4.927 2.171-4.927c.026-.06933.0694-.121334.13-.156001.0607-.043333.1257-.065.195-.065h.702Z" fill="#A6A6A6"/></svg>