<svg width="16" height="11" fill="none" xmlns="http://www.w3.org/2000/svg"><path d="M7.397.899999c.06933 0 .13.026001.182.078001.052.052.078.11267.078.182 0 .06933-.013.13-.039.182L4.966 7.348c-.30333.68467-.57633 1.209-.819 1.573-.234.35533-.51133.624-.832.806-.32067.182-.73667.273-1.248.273h-.52c-.08667 0-.16033-.026-.221-.078-.052-.06067-.078-.13433-.078-.221v-.546c0-.08667.026-.16033.078-.221.06067-.06067.13433-.091.221-.091h.455c.34667 0 .63267-.104.858-.312.234-.21667.47233-.57633.715-1.079L.208 1.316c-.026-.052-.039-.09967-.039-.143 0-.06933.026-.13.078-.182C.307667.930333.372667.899999.442.899999h.741c.13 0 .234.073667.312.221001l2.704 4.927L6.37 1.121c.026-.06933.06933-.121334.13-.156001.06067-.043333.12567-.065.195-.065h.702ZM11.5293 10.13c-.6847 0-1.274-.0997-1.76803-.299-.48533-.208-.86233-.48533-1.131-.832-.26866-.35533-.42466-.74967-.468-1.183V7.79c0-.06933.026-.12133.078-.156.052-.04333.117-.065.195-.065h.65c.09534 0 .17334.02167.234.065.06067.03467.104.104.13.208.104.364.33367.65433.68903.871.3553.208.8146.312 1.378.312.624 0 1.144-.143 1.56-.429.4246-.286.637-.676.637-1.17 0-.51133-.1864-.90567-.559-1.183-.364-.286-.8624-.429-1.495-.429h-.923c-.0867 0-.1604-.026-.221-.078-.052-.06067-.078-.13433-.078-.221V5.06c0-.09533.026-.169.078-.221.0606-.06067.1343-.091.221-.091h.871c.5546 0 .9923-.12133 1.313-.364.3293-.24267.494-.611.494-1.105 0-.42467-.1777-.76267-.533-1.014-.3554-.26-.7974-.39-1.326-.39-.546 0-.9924.09967-1.339.299-.34669.19933-.56336.50267-.65003.91-.04333.17333-.14733.26-.312.26h-.702c-.078 0-.14733-.026-.208-.078-.052-.052-.07366-.117-.065-.195.06067-.69333.37267-1.248.936-1.664C9.77861.982333 10.5673.77 11.5813.77c.6586 0 1.222.112666 1.69.338.4766.22533.832.52433 1.066.897.2426.37267.364.77567.364 1.209 0 .92733-.3467 1.59467-1.04 2.002.4506.22533.7886.533 1.014.923.2253.38133.338.819.338 1.313 0 .52867-.143.99667-.429 1.404-.286.39867-.6934.71067-1.222.936-.52.2253-1.131.338-1.833.338Z" fill="#000"/></svg>